<svg viewBox="0 0 315 43" xmlns="http://www.w3.org/2000/svg" data-logo="logo">
        <g transform="translate(0, 1) rotate(0)" id="logogram"><path fill="#242424" d="M37.5569 2.04585C38.4821 1.08338 39.7385 0.542663 41.0469 0.542664C46.9335 0.542664 52.4811 0.542667 57.9442 0.542678C68.932 0.542701 74.4342 14.3629 66.6646 22.4456L49.7407 40.0517C48.9637 40.86 47.6352 40.2875 47.6352 39.1444V23.6376L49.591 21.6029C51.145 19.9864 50.0444 17.2223 47.8468 17.2223H22.9684L37.5569 2.04585Z"></path><path fill="#000000" d="M33.0467 38.8142C32.1215 39.7767 30.8651 40.3174 29.5567 40.3174C23.6701 40.3174 18.1225 40.3174 12.6594 40.3174C1.67159 40.3173 -3.83061 26.4972 3.93897 18.4144L20.8629 0.808361C21.6399 8.48472e-05 22.9684 0.57254 22.9684 1.71562L22.9684 17.2223L21.0126 19.2571C19.4586 20.8737 20.5592 23.6377 22.7568 23.6377L47.6352 23.6376L33.0467 38.8142Z"></path></g>
        <g transform="translate(77, 8.5)" id="logotype"><path d="M33.62 26L7.50 26L7.50 20.54L28.68 2.41L31.24 6.08L8.17 6.08L8.17 1.01L33.06 1.01L33.06 6.47L11.95 24.60L9.36 20.93L33.62 20.93L33.62 26ZM51.89 26.49L51.89 26.49Q46.99 26.49 43.36 24.91Q39.74 23.34 37.75 20.42Q35.75 17.49 35.75 13.50L35.75 13.50Q35.75 11.51 36.26 9.78Q36.77 8.04 37.75 6.59Q38.73 5.14 40.14 4.02Q41.56 2.90 43.35 2.11Q45.13 1.32 47.27 0.92Q49.40 0.52 51.89 0.52L51.89 0.52Q56.79 0.52 60.41 2.11Q64.03 3.70 66.01 6.61Q67.99 9.51 67.99 13.50L67.99 13.50Q67.99 15.50 67.50 17.23Q67.01 18.96 66.01 20.42Q65.01 21.87 63.61 22.99Q62.21 24.11 60.41 24.90Q58.61 25.68 56.47 26.09Q54.34 26.49 51.89 26.49ZM51.89 21.41L51.89 21.41Q53.29 21.41 54.49 21.17Q55.70 20.93 56.73 20.45Q57.77 19.98 58.55 19.30Q59.34 18.61 59.90 17.74Q60.46 16.86 60.74 15.80Q61.02 14.73 61.02 13.50L61.02 13.50Q61.02 11.02 59.90 9.25Q58.78 7.48 56.73 6.54Q54.69 5.59 51.89 5.59L51.89 5.59Q50.49 5.59 49.26 5.84Q48.04 6.08 47.02 6.56Q46.01 7.03 45.20 7.71Q44.40 8.39 43.84 9.27Q43.28 10.14 43.00 11.19Q42.72 12.24 42.72 13.50L42.72 13.50Q42.72 15.95 43.84 17.74Q44.96 19.52 47.04 20.47Q49.12 21.41 51.89 21.41ZM85.87 26.49L85.87 26.49Q80.97 26.49 77.35 24.91Q73.73 23.34 71.73 20.42Q69.74 17.49 69.74 13.50L69.74 13.50Q69.74 11.51 70.24 9.78Q70.75 8.04 71.73 6.59Q72.71 5.14 74.13 4.02Q75.55 2.90 77.33 2.11Q79.12 1.32 81.25 0.92Q83.39 0.52 85.87 0.52L85.87 0.52Q90.77 0.52 94.39 2.11Q98.02 3.70 99.99 6.61Q101.97 9.51 101.97 13.50L101.97 13.50Q101.97 15.50 101.48 17.23Q100.99 18.96 99.99 20.42Q99.00 21.87 97.60 22.99Q96.20 24.11 94.39 24.90Q92.59 25.68 90.46 26.09Q88.32 26.49 85.87 26.49ZM85.87 21.41L85.87 21.41Q87.27 21.41 88.48 21.17Q89.69 20.93 90.72 20.45Q91.75 19.98 92.54 19.30Q93.33 18.61 93.89 17.74Q94.45 16.86 94.73 15.80Q95.01 14.73 95.01 13.50L95.01 13.50Q95.01 11.02 93.89 9.25Q92.77 7.48 90.72 6.54Q88.67 5.59 85.87 5.59L85.87 5.59Q84.47 5.59 83.25 5.84Q82.02 6.08 81.01 6.56Q79.99 7.03 79.19 7.71Q78.38 8.39 77.82 9.27Q77.26 10.14 76.98 11.19Q76.70 12.24 76.70 13.50L76.70 13.50Q76.70 15.95 77.82 17.74Q78.94 19.52 81.02 20.47Q83.11 21.41 85.87 21.41ZM120.14 26L113.45 26L113.45 6.05L102.92 6.05L102.92 1.01L130.64 1.01L130.64 6.05L120.14 6.05L120.14 26ZM149.33 26L142.64 26L142.64 1.01L159.69 1.01Q161.93 1.01 163.69 1.57Q165.46 2.13 166.70 3.21Q167.95 4.30 168.61 5.86Q169.28 7.41 169.28 9.38L169.28 9.38Q169.28 11.37 168.61 12.93Q167.95 14.48 166.70 15.57Q165.46 16.66 163.69 17.21Q161.93 17.77 159.69 17.77L159.69 17.77L149.33 17.77L149.33 26ZM149.33 6.08L149.33 12.66L159.06 12.66Q160.04 12.66 160.77 12.26Q161.51 11.86 161.93 11.12Q162.35 10.39 162.35 9.38L162.35 9.38Q162.35 7.83 161.44 6.96Q160.53 6.08 159.06 6.08L159.06 6.08L149.33 6.08ZM178.45 26L172.43 26L172.43 1.01L181.95 1.01L190.31 21.73L187.69 21.73L196.16 1.01L205.22 1.01L205.22 26L198.75 26L198.75 5.07L200.11 5.28L191.40 26L185.83 26L177.12 5.28L178.45 5.07L178.45 26ZM222.93 26.49L222.93 26.49Q219.50 26.49 216.88 25.93Q214.25 25.37 212.41 24.32Q210.58 23.27 209.61 21.78Q208.65 20.29 208.55 18.48L208.55 18.48L215.44 18.48Q215.65 19.21 216.25 19.82Q216.84 20.43 217.77 20.87Q218.70 21.31 219.99 21.55Q221.29 21.80 222.93 21.80L222.93 21.80Q225.06 21.80 226.59 21.43Q228.11 21.06 228.95 20.36Q229.79 19.66 229.79 18.72L229.79 18.72Q229.79 18.13 229.51 17.70Q229.23 17.28 228.65 17.00Q228.08 16.73 227.17 16.62L227.17 16.62L218.49 15.53Q216.21 15.25 214.43 14.69Q212.64 14.13 211.45 13.26Q210.26 12.38 209.63 11.12Q209 9.86 209 8.22L209 8.22Q209 6.43 209.91 5.00Q210.82 3.56 212.57 2.57Q214.32 1.57 216.79 1.04Q219.26 0.52 222.41 0.52L222.41 0.52Q225.56 0.52 227.95 1.03Q230.35 1.53 232.01 2.50Q233.68 3.46 234.57 4.81Q235.46 6.15 235.57 7.80L235.57 7.80L228.64 7.80Q228.50 6.99 227.74 6.42Q226.99 5.84 225.63 5.52Q224.26 5.21 222.23 5.21L222.23 5.21Q220.24 5.21 218.80 5.52Q217.37 5.84 216.65 6.43Q215.93 7.03 215.93 7.87L215.93 7.87Q215.93 8.46 216.30 8.94Q216.67 9.41 217.33 9.71Q218.00 10.00 218.91 10.14L218.91 10.14L227.90 11.23Q230.77 11.58 232.73 12.49Q234.69 13.40 235.72 14.87Q236.76 16.34 236.76 18.44L236.76 18.44Q236.76 20.43 235.86 21.92Q234.97 23.41 233.20 24.44Q231.44 25.48 228.86 25.98Q226.29 26.49 222.93 26.49Z" fill="#111111"></path></g>
        
      </svg>